<?xml version="1.0" encoding="UTF-8"?>
<svg id="Layer_2" xmlns="http://www.w3.org/2000/svg" viewBox="0 0 81.35 32.54">
  <defs>
    <style>
      .cls-1 {
        fill: #f37021;
      }

      .cls-2 {
        fill: #034ea2;
      }
    </style>
  </defs>
  <g id="_圖層_1" data-name="圖層_1">
    <g>
      <path class="cls-2" d="M19.52,7.81h0v-.02s0,.02,0,.02h-3.41c-1.88,0-4.04,1.64-4.81,3.65l-2.2,5.79h6.83l3.59-9.41.02-.02ZM3.27,32.5v.02s-.01,0,0,0v.02s0-.02,0-.02h3.41c1.88,0,4.04-1.64,4.81-3.65l3.94-10.32h-6.83l-5.32,13.95Z"/>
      <path class="cls-2" d="M43.88,0c-1.18.58-7.44,3.24-19.47,1.63-4.87-.65-6.33-1.63-11.39-1.63S3,1.3,0,6.44l.06.06c.8-.37,3.99-1.7,9.7-1.7,6.75,0,9.52,1.7,16.27,1.7S38.9,5.33,43.93.06l-.05-.06Z"/>
      <path class="cls-2" d="M25.2,17.25l.84-2.28h.51c1.76-.14,4.14.14,4.75-1.66.69-2.05-4.71-2.24-5.96.79h-5.94c1.09-2.62,4.42-6.06,10.79-6.06,7.48,0,7.57,3.25,7.06,5.11-1.34,3.74-5.03,4.09-8.17,4.09h-3.9Z"/>
      <path class="cls-2" d="M28.49,20.38c-.35,1.05-1.77,2.19-4,1.72-2.47-.52-1.71-2.44-1.22-3.55h-6.2c-.67,1.78-1.46,4.85,1.21,6.51,1.77,1.1,4.28,1.51,8.82.94,1.27-.16,3.16-.72,4.94-1.82,1.44-.89,3.31-3.09,3.08-5.63h-7.4c.72.49,1.06,1,.78,1.83Z"/>
      <path class="cls-1" d="M45.69,17.25l.73-2.28h.56,0c4.36,0,4.78-.75,5-1.19.5-1.01.23-2.15-1.97-2.07-2.21.08-4.17,1.15-5.18,3.05-.48.82-.7,1.35-1.09,2.48h-6.68c.04-.17.21-.66.25-.84,3.4-7.91,11.04-8.42,13.45-8.34,3.68.11,8.39,1.25,7.74,5.84-.32,2.7-3.5,3.35-6.97,3.35h-5.84Z"/>
      <path class="cls-1" d="M46.12,22.18c-2.71,0-3.05-1.59-2.71-3.63h-6.57c-.94,6.51,3.81,7.65,8.83,7.65,6.16-.34,9.85-3.69,11.74-7.65h-6.17c-.61,1.2-2.51,3.63-5.13,3.63Z"/>
      <path class="cls-1" d="M70.51,17.25l10.84-12.37h-4.39c-1.25,0-2.98.74-3.85,1.65l-6.06,6.51-2.98-4.26h-5.54l5.6,8.46h6.38ZM54.98,26.04h4.82c1.61,0,3.81-.98,4.9-2.17l2.19-2.48,3.08,4.65h6.19l-5.25-7.48h-8.96l-6.96,7.49Z"/>
    </g>
  </g>
</svg>