<?xml version="1.0" encoding="UTF-8"?>
<svg id="Layer_2" xmlns="http://www.w3.org/2000/svg" viewBox="0 0 93.36 79.13">
  <defs>
    <style>
      .cls-1 {
        fill: #b7b7b7;
      }

      .cls-2 {
        fill: #e8e8e8;
      }
    </style>
  </defs>
  <g id="Layer_1-2" data-name="Layer_1">
    <g id="_x32_">
      <rect class="cls-2" width="64.8" height="64.8"/>
      <path class="cls-1" d="M93.36,79.13h-5v-3.11h2.14v-2.33h2.85v5.44ZM82.04,76.02h-6.32v3.11h6.32v-3.11ZM69.39,76.02h-6.32v3.11h6.32v-3.11ZM56.74,76.02h-6.32v3.11h6.32v-3.11ZM44.1,76.02h-2.14v-2.33h-2.85v5.44h5v-3.11ZM41.96,58.14h-2.85v7.77h2.85v-7.77ZM41.96,42.58h-2.85v7.77h2.85v-7.77ZM41.96,32.47h2.14v-3.11h-5v5.44h2.85s0-2.33,0-2.33ZM82.04,29.36h-6.32v3.11h6.32v-3.11ZM69.39,29.36h-6.32v3.11h6.32v-3.11ZM56.74,29.36h-6.32v3.11h6.32v-3.11ZM93.36,29.36h-5v3.11h2.14v2.33h2.85v-5.44ZM93.36,58.14h-2.85v7.77h2.85v-7.77ZM93.36,42.58h-2.85v7.77h2.85v-7.77Z"/>
    </g>
  </g>
</svg>