<?xml version="1.0" encoding="UTF-8"?>
<svg id="Layer_2" xmlns="http://www.w3.org/2000/svg" viewBox="0 0 93.63 111.86">
  <defs>
    <style>
      .cls-1 {
        fill: #b7b7b7;
      }

      .cls-2 {
        fill: #e8e8e8;
      }
    </style>
  </defs>
  <g id="_x31_7">
    <path class="cls-1" d="M75.21,88.69l10.09,21.44-3.69,1.73-10.43-22.19-12.94,15.22v-50.82l35.4,34.97-18.42-.35Z"/>
  </g>
  <g id="_x32_">
    <rect class="cls-2" width="54.74" height="54.74"/>
    <path class="cls-1" d="M77.66,69.44h-4.22v-2.41h1.81v-1.81h2.41v4.22ZM68.1,67.03h-5.34v2.41h5.34v-2.41ZM57.41,67.03h-5.34v2.41h5.34v-2.41ZM46.73,67.03h-5.34v2.41h5.34v-2.41ZM36.05,67.03h-1.81v-1.81h-2.41v4.22h4.22v-2.41ZM34.24,53.16h-2.41v6.03h2.41v-6.03ZM34.24,41.09h-2.41v6.03h2.41v-6.03ZM34.24,33.25h1.81v-2.41h-4.22v4.22h2.41v-1.81ZM68.1,30.84h-5.34v2.41h5.34v-2.41ZM57.41,30.84h-5.34v2.41h5.34v-2.41ZM46.73,30.84h-5.34v2.41h5.34v-2.41ZM77.66,30.84h-4.22v2.41h1.81v1.81h2.41v-4.22ZM77.66,53.16h-2.41v6.03h2.41v-6.03ZM77.66,41.09h-2.41v6.03h2.41v-6.03Z"/>
  </g>
</svg>